<svg data-v-fde0c5aa="" xmlns="http://www.w3.org/2000/svg" viewBox="0 0 300 300" class="iconAbove"><!----><defs data-v-fde0c5aa=""><!----></defs><rect data-v-fde0c5aa="" fill="transparent" x="0" y="0" width="300px" height="300px" class="logo-background-square"></rect><defs data-v-fde0c5aa=""><!----></defs><g data-v-fde0c5aa="" id="1c5917a2-33fa-4ba1-a8f6-497beccb33c3" fill="#000000"><path d=""></path></g><defs data-v-fde0c5aa=""><linearGradient data-v-fde0c5aa="" gradientTransform="rotate(25)" id="41bc5cd1-eed0-4274-b130-3e6d0140f894" x1="0%" y1="0%" x2="100%" y2="0%"><stop data-v-fde0c5aa="" offset="0%" stop-color="#000A68" stop-opacity="1"></stop><stop data-v-fde0c5aa="" offset="100%" stop-color="#00C4EE" stop-opacity="1"></stop></linearGradient></defs><g data-v-fde0c5aa="" id="6be04979-275f-4af4-ad7c-b6012baffb7c" stroke="none" fill="url(#41bc5cd1-eed0-4274-b130-3e6d0140f894)"><g data-name="Layer 2"><path d="M85.11 255.12a5.37 5.37 0 005.37-5.37v-74.37h74.15v74.37a5.38 5.38 0 0010.75 0v-74.37h74.37a5.38 5.38 0 000-10.75h-74.37V90.48h74.37a5.37 5.37 0 000-10.74h-74.37V5.37a5.38 5.38 0 00-10.75 0v74.37H90.48V5.37a5.37 5.37 0 00-10.74 0v74.37H5.37a5.37 5.37 0 000 10.74h74.37v74.15H5.37a5.38 5.38 0 000 10.75h74.37v74.37a5.38 5.38 0 005.37 5.37zm5.37-164.64h74.15v74.15H90.48zm37.08 6.6A30.48 30.48 0 10158 127.56a30.51 30.51 0 00-30.44-30.48zm0 50.13a19.65 19.65 0 1119.64-19.65 19.68 19.68 0 01-19.64 19.65zm0 96.79a30.48 30.48 0 10-30.48-30.48A30.51 30.51 0 00127.56 244zm0-50.12a19.65 19.65 0 11-19.65 19.64 19.66 19.66 0 0119.65-19.64zm117.18-152a30.49 30.49 0 10-30.49 30.48 30.53 30.53 0 0030.49-30.49zm-50.13 0a19.65 19.65 0 1119.64 19.64 19.66 19.66 0 01-19.64-19.65zm44.46 68.47l-17.22 17.22 17.22 17.22a5.37 5.37 0 01-7.59 7.6l-17.23-17.23L197 152.38a5.37 5.37 0 01-7.59-7.6l17.22-17.22-17.22-17.22a5.37 5.37 0 017.59-7.6L214.25 120l17.23-17.22a5.37 5.37 0 017.59 7.6zm-172.54 86l-17.22 17.17 17.22 17.22a5.37 5.37 0 11-7.59 7.6l-17.23-17.22-17.22 17.22a5.37 5.37 0 11-7.59-7.6l17.22-17.22L16.9 196.3a5.37 5.37 0 017.59-7.6l17.22 17.23 17.23-17.23a5.37 5.37 0 017.59 7.6zM16.9 144.78l17.22-17.22-17.22-17.22a5.37 5.37 0 117.59-7.6L41.71 120l17.23-17.22a5.37 5.37 0 117.59 7.6l-17.22 17.18 17.22 17.22a5.37 5.37 0 01-7.59 7.6l-17.23-17.23-17.22 17.23a5.37 5.37 0 01-7.59-7.6z" data-name="Layer 1"></path></g></g><!----></svg>